<svg width="10" height="10" viewBox="0 0 10 10" fill="none" xmlns="http://www.w3.org/2000/svg">
<path d="M9.73103 0.269028C9.37242 -0.0895917 8.791 -0.0895917 8.43238 0.269028L5.00003 3.70138L1.56764 0.268994C1.20903 -0.0896255 0.627613 -0.0896255 0.268994 0.268994C-0.0896255 0.627613 -0.0896255 1.20903 0.268994 1.56764L3.70138 5.00003L0.269027 8.43238C-0.0895922 8.791 -0.0895922 9.37242 0.269027 9.73104C0.627646 10.0897 1.20906 10.0897 1.56768 9.73104L5.00003 6.29868L8.43234 9.73099C8.79096 10.0896 9.37237 10.0896 9.73099 9.73099C10.0896 9.37237 10.0896 8.79096 9.73099 8.43234L6.29868 5.00003L9.73103 1.56768C10.0897 1.20906 10.0897 0.627647 9.73103 0.269028Z" fill="#AAAAAA"/>
</svg>
