<svg width="23" height="22" viewBox="0 0 23 22" fill="none" xmlns="http://www.w3.org/2000/svg">
<path d="M20.0172 6.55263L16.2734 2.8089L8.36256 10.7198L12.1063 14.4635L20.0172 6.55263Z" fill="#F9F9F9" stroke="#6E7B97" stroke-width="1.5" stroke-linejoin="round"/>
<path d="M20.016 6.55478L16.2715 2.81031L17.0715 2.0103C18.1048 0.976955 19.7826 0.976955 20.816 2.0103C21.8493 3.04364 21.8493 4.72143 20.816 5.75478L20.016 6.55478Z" fill="#F9F9F9" stroke="#6E7B97" stroke-width="1.5" stroke-linejoin="round"/>
<path d="M12.1096 14.466L8.36516 10.7215C7.79293 11.2937 7.4707 12.0771 7.4707 12.8882V15.366H9.9485C10.7541 15.3604 11.5319 15.0382 12.1096 14.466Z" fill="#F9F9F9" stroke="#6E7B97" stroke-width="1.5" stroke-linejoin="round"/>
<path d="M9.23495 3.58826H5.87878C3.51174 3.58826 1.58789 5.50707 1.58789 7.87915V16.9444C1.58789 19.3115 3.50671 21.2353 5.87878 21.2353H14.9441C17.3111 21.2353 19.2349 19.3165 19.2349 16.9444V13.5883" stroke="#6E7B97" stroke-width="1.5" stroke-linecap="round" stroke-linejoin="round"/>
</svg>
