<svg width="200" height="56" viewBox="0 0 200 56" fill="none" xmlns="http://www.w3.org/2000/svg">
<path d="M51.2617 25.8922H62.2723V36.0807L68.3655 25.8922H80.4379L71.0807 39.303L80.7158 54.1712H68.0519L62.2723 43.4255V54.1712H51.2617V25.8922Z" fill="#2D6ABA"/>
<path d="M48.4607 53.2837C46.1836 54.4802 43.6408 55.0776 41.0705 55.0199C32.1052 55.0199 25.7412 49.0826 25.7412 40.0159C25.7412 29.756 33.9154 25.0118 40.9137 25.0118C43.1514 25.0118 46.2586 25.5763 48.4607 27.1553V37.0865C47.7309 36.1648 46.8052 35.4179 45.7512 34.9C44.6972 34.3822 43.5412 34.1064 42.3675 34.0928C38.2768 34.0928 36.317 36.8793 36.317 40.3159C36.317 43.8883 38.8684 45.9674 42.3319 45.9674C44.6257 45.9111 46.814 44.9901 48.4607 43.3882V53.2837Z" fill="#2D6ABA"/>
<path d="M11.0034 47.2252V42.9383H12.3432C13.4051 42.9383 15.0941 43.1384 15.0941 45.0389C15.0941 46.9394 13.3623 47.1823 12.3432 47.1823L11.0034 47.2252ZM0 25.7123V53.9913H16.27C23.9025 53.9913 25.5345 48.99 25.5345 46.132C25.5737 44.389 24.9758 42.6918 23.8535 41.3601C22.7312 40.0283 21.162 39.1539 19.4413 38.9015V38.8229C21.7218 38.1085 24.2375 36.1151 24.2375 32.9285C24.2375 30.7422 23.4108 25.7337 15.5074 25.7337L0 25.7123ZM11.0034 36.4294V32.4998H12.0297C13.9538 32.4998 14.4669 33.5144 14.4669 34.4789C14.4669 35.4435 13.9538 36.458 12.0297 36.458L11.0034 36.4294Z" fill="#2D6ABA"/>
<path d="M145.047 29.4946L141.905 29.616L141.62 28.8444L138.598 28.6301L138.577 28.0656L135.334 28.0156L135.868 29.1874L137.322 29.3588L137.144 28.9802L138.448 29.859L140.629 30.352L142.076 30.402L145.717 29.9161L145.047 29.4946Z" fill="#56B9E9"/>
<path d="M137.037 26.75L135.554 26.55C135.554 26.3777 135.502 26.2094 135.406 26.0668C135.309 25.9243 135.172 25.8139 135.013 25.7498C134.435 25.464 134.571 25.7498 134.571 25.7498L134.008 25.3354L132.967 25.1496L132.882 24.3637L131.542 24.2994V23.9136L130.487 23.785L130.038 23.3848L130.181 22.9347L129.917 22.5346L128.656 21.9345L127.622 21.5058L126.91 20.7056L126.083 19.9911L125.007 18.9408L122.349 18.012L119.819 16.14L118.793 15.7042L117.709 15.1684L115.45 13.8966L112.065 12.0032L104.547 8.35224L102.409 7.40199C101.197 6.87327 100.983 6.59463 100.983 6.43744C100.207 6.33737 99.4878 5.97438 98.9452 5.4086C98.122 5.25606 97.3515 4.89445 96.7074 4.35831C96.7074 4.35831 94.4982 3.69385 94.3557 3.56524C94.3557 3.42949 88.6544 1.42181 87.9418 1.23605C87.2414 1.15867 86.5481 1.02729 85.8679 0.843083C85.6399 0.843083 84.7562 0.571582 84.3998 0.528713C83.2187 0.354738 82.0293 0.242651 80.8366 0.192909C80.1186 0.221712 79.3999 0.156866 78.6986 0C78.4278 0.171475 76.639 -0.15004 75.9976 0.321515C75.0254 0.405259 74.0676 0.611708 73.147 0.935966C72.1707 0.978834 70.503 2.05055 69.94 2.36492L69.0635 2.78646C70.8522 3.42235 72.8833 4.17255 72.8904 4.25114C73.033 4.37975 75.2351 5.02992 75.2422 5.04421C75.8767 5.59085 76.6436 5.96046 77.4657 6.11593C78.0055 6.68553 78.726 7.04924 79.5039 7.14478C79.5039 7.30196 79.7248 7.58061 80.9292 8.10932L83.0672 9.05958L90.5643 12.7106L93.9495 14.6039L96.2798 15.79L97.3631 16.333L98.3893 16.7688L99.2302 17.3904L100.884 18.0334L104.604 19.2552L109.101 21.0128L110.782 21.5844L112.471 22.1131L113.27 21.963L114.146 22.2631L115.115 23.1348L116.106 22.8061L116.776 22.9276L117.31 23.6421L117.652 24.0565L118.5 24.3137L119.341 24.4137L120.339 24.2351L121.508 24.328L121.921 25.0424L123.553 25.3282L124.729 25.414L125.905 25.5068L126.796 25.9284L127.622 26.8215L128.798 27.0644L131.849 27.5074L134.607 27.1716L136.395 27.2645L137.037 26.75Z" fill="#56B9E9"/>
<path d="M112.336 31.2202L115.586 31.2702L115.607 31.8275L118.629 32.049L118.914 32.8278L122.057 32.6992L122.726 33.1207L119.078 33.6066L117.631 33.5566L115.45 33.0707L114.146 32.1776L114.324 32.5634L112.878 32.3991L112.336 31.2202Z" fill="#0057B8"/>
<path d="M112.678 29.8839C112.678 29.7124 112.627 29.5448 112.532 29.4023C112.437 29.2598 112.302 29.1489 112.143 29.0837C111.566 28.7979 111.694 29.0837 111.694 29.0837L111.131 28.6693L110.091 28.4907L110.005 27.7048L108.658 27.6404L108.701 27.2546L107.611 27.1046L107.162 26.7045L107.304 26.2615L107.041 25.8543L105.779 25.2541L104.76 24.8326L104.048 24.0395L103.214 23.325L102.152 22.2819L99.4865 21.3388L96.9566 19.474L95.9303 19.0381L94.8471 18.5023L92.5523 17.2162L89.1672 15.3157L81.6701 11.6862L79.5321 10.7359C78.3134 10.2072 78.1068 9.92856 78.1068 9.77137C77.3303 9.6713 76.6112 9.30831 76.0686 8.74253C75.2433 8.59021 74.4734 8.22029 73.838 7.67081C73.838 7.67081 71.6358 7.00635 71.4862 6.87774C71.4862 6.74914 65.7849 4.73431 65.0723 4.5414C64.3718 4.46877 63.6783 4.33975 62.9984 4.15558C62.7633 4.15558 61.8867 3.88408 61.5304 3.84121C60.3402 3.71261 59.2 3.5197 57.9671 3.50541C57.2491 3.53389 56.5305 3.46905 55.8291 3.3125C55.5583 3.48397 53.7624 3.16246 53.121 3.63401C52.1629 3.71875 51.2193 3.92522 50.3131 4.24847C49.3368 4.29133 47.6692 5.37019 47.099 5.67742C46.5289 5.98464 46.0443 6.16326 45.5811 6.44905C45.3744 6.62767 42.2316 8.17809 42.0178 8.371C42.0606 8.48531 38.9462 10.3358 38.6541 10.6145C38.5187 10.7502 37.6848 11.086 37.4853 11.2861C37.0689 11.6855 36.6235 12.0533 36.1526 12.3864C36.0315 12.6436 35.2404 12.9294 35.105 13.1866C34.9696 13.4438 33.9719 13.9011 33.8222 14.094L32.853 14.887L32.3328 15.6015C31.8963 15.8102 31.4749 16.0489 31.0714 16.316C31.0714 16.8161 31.1355 17.602 30.3587 17.4591L29.418 17.9307C29.532 17.9307 28.9334 18.8095 28.4345 19.4311C28.1495 19.7883 26.8026 20.2742 26.5389 20.6457C25.9973 21.4031 25.306 22.0747 24.7715 22.8249V22.932H24.8285C24.8285 23.0321 25.3487 23.0178 25.42 23.2178C25.4913 23.4179 25.2133 23.768 25.1349 24.0252H25.1991V24.0824C25.6124 24.0824 26.0186 23.6322 26.3536 23.4536L27.1945 23.125L28.684 22.2176L39.8086 16.1659C41.5902 15.2085 43.0013 14.3154 44.9539 13.2294C45.4314 12.9722 47.2131 11.7648 48.56 11.679C50.0066 11.6182 51.4529 11.8067 52.8359 12.2363C53.3633 12.4221 54.6532 13.0794 55.3017 13.2294C55.5013 13.308 55.8719 13.5724 55.9574 13.5724C56.0429 13.5724 57.2473 13.8582 57.8958 14.0868L58.5586 14.4869C59.6204 14.8013 62.2715 15.4229 63.2265 15.723C64.046 15.973 64.5235 16.4374 64.9297 16.516C65.4856 16.9019 65.6424 16.7089 66.2838 17.0376C66.8793 17.0808 67.4581 17.2539 67.9799 17.5449C68.2935 17.6735 68.5144 17.8092 68.828 17.9378C69.173 18.0751 69.5006 18.2526 69.8043 18.4666C70.0466 18.5166 71.7142 19.031 71.8782 19.1096C72.4458 19.2216 72.9904 19.4294 73.4888 19.724C73.8387 19.8729 74.2045 19.9807 74.5791 20.0456L77.9856 21.3816L81.7057 22.5962L86.2311 24.361L87.9129 24.9326L89.6019 25.4613L90.393 25.3113L91.2696 25.6113L92.2388 26.5044L93.2294 26.1758L93.8993 26.2901L94.4338 27.0046L94.7758 27.419L95.6239 27.669L96.4648 27.7833L97.4625 27.5976L98.6313 27.6905L99.0447 28.4049L100.677 28.6836L101.845 28.7836L103.028 28.8693L103.926 29.2909L104.76 30.134L105.936 30.3698L108.986 30.8199L111.744 30.4841L113.533 30.5698L114.174 30.0911L112.678 29.8839Z" fill="#2D6ABA"/>
<path d="M89.8877 53.0195C89.2146 53.3698 88.4652 53.5466 87.707 53.5339C87.0969 53.5524 86.4895 53.4464 85.9216 53.2224C85.3536 52.9984 84.837 52.6609 84.4031 52.2306C83.9693 51.8003 83.6271 51.2861 83.3975 50.7192C83.1679 50.1522 83.0557 49.5444 83.0675 48.9327C83.0533 48.2887 83.1727 47.6489 83.4181 47.0536C83.6634 46.4583 84.0294 45.9207 84.4929 45.4746C85.3791 44.675 86.5446 44.2589 87.7355 44.3171C88.4826 44.3125 89.2186 44.4994 89.8734 44.8602V46.8678C89.6083 46.5591 89.2803 46.3107 88.9116 46.1394C88.5428 45.9682 88.1418 45.8779 87.7355 45.8747C87.3406 45.8792 86.9507 45.963 86.5887 46.1213C86.2268 46.2796 85.9002 46.5092 85.6284 46.7964C85.3566 47.0835 85.1451 47.4225 85.0063 47.7931C84.8676 48.1638 84.8044 48.5586 84.8207 48.9541C84.807 49.3523 84.8746 49.7491 85.0194 50.1201C85.1643 50.4911 85.3832 50.8285 85.6629 51.1115C85.9426 51.3946 86.277 51.6173 86.6457 51.766C87.0143 51.9148 87.4095 51.9863 87.8067 51.9763C88.1997 51.9777 88.5882 51.892 88.9442 51.7252C89.3003 51.5585 89.6152 51.3149 89.8663 51.0118L89.8877 53.0195Z" fill="#2D6ABA"/>
<path d="M94.9116 53.3335H93.1869V45.9958H91.2129V44.5168H96.8999V45.9958H94.9116V53.3335Z" fill="#2D6ABA"/>
<path d="M98.6387 44.5157V53.3324H100.356V50.0815H101.468C101.873 50.1073 102.279 50.0517 102.662 49.9179C103.045 49.7842 103.397 49.575 103.699 49.3027C104.195 48.7253 104.454 47.98 104.422 47.2183C104.39 46.4566 104.07 45.7355 103.528 45.2016C103.204 44.9414 102.832 44.7481 102.433 44.6329C102.034 44.5176 101.617 44.4826 101.204 44.53L98.6387 44.5157ZM100.356 45.9947H100.955C101.378 45.9579 101.802 46.0554 102.166 46.2733C102.323 46.3877 102.449 46.5385 102.535 46.7127C102.621 46.887 102.663 47.0794 102.658 47.2736C102.662 47.4696 102.622 47.6639 102.54 47.842C102.459 48.0202 102.338 48.1776 102.188 48.3025C101.853 48.5243 101.454 48.6251 101.055 48.5883H100.342L100.356 45.9947Z" fill="#2D6ABA"/>
<path d="M111.787 53.3319H113.64L109.927 44.3224H108.63L104.811 53.3319H106.678L107.455 51.51H111.018L111.787 53.3319ZM107.996 50.0811L109.265 46.9088L110.512 50.0811H107.996Z" fill="#2D6ABA"/>
<path d="M117.56 48.6823L114.923 44.5168H116.983L118.529 47.2462L120.154 44.5168H122.221L119.506 48.6823L122.52 53.3335H120.468L118.529 50.1041L116.498 53.3335H114.432L117.56 48.6823Z" fill="#2D6ABA"/>
<path d="M128.734 44.3181C127.828 44.3378 126.948 44.6251 126.205 45.1441C125.461 45.6631 124.886 46.3906 124.553 47.2355C124.22 48.0805 124.143 49.0052 124.331 49.8938C124.52 50.7825 124.966 51.5955 125.614 52.231C126.262 52.8665 127.082 53.2963 127.972 53.4664C128.862 53.6366 129.783 53.5395 130.618 53.1874C131.454 52.8353 132.167 52.2439 132.669 51.4872C133.17 50.7305 133.438 49.8422 133.438 48.9336C133.458 48.3136 133.349 47.6963 133.118 47.1208C132.887 46.5452 132.54 46.024 132.097 45.5901C131.655 45.1562 131.128 44.8191 130.549 44.6001C129.97 44.3812 129.352 44.2851 128.734 44.3181ZM128.734 51.9773C128.128 51.9987 127.529 51.8379 127.015 51.5156C126.501 51.1933 126.094 50.7242 125.847 50.1685C125.601 49.6128 125.525 48.996 125.631 48.3971C125.737 47.7982 126.018 47.2446 126.44 46.8074C126.862 46.3703 127.404 46.0694 127.998 45.9436C128.591 45.8177 129.209 45.8726 129.771 46.1011C130.333 46.3296 130.814 46.7214 131.153 47.2261C131.491 47.7308 131.672 48.3254 131.671 48.9336C131.697 49.3316 131.639 49.7306 131.502 50.105C131.365 50.4795 131.152 50.821 130.875 51.1077C130.599 51.3944 130.265 51.6198 129.897 51.7696C129.528 51.9194 129.132 51.9901 128.734 51.9773Z" fill="#2D6ABA"/>
<path d="M137.408 49.4968H138.042C138.443 49.4678 138.844 49.5288 139.218 49.6754C139.416 49.7561 139.585 49.8961 139.701 50.0764C139.817 50.2567 139.875 50.4684 139.867 50.6828C139.875 50.8851 139.83 51.086 139.734 51.2645C139.639 51.443 139.498 51.5925 139.325 51.6974C138.959 51.8747 138.555 51.9559 138.149 51.9332H137.436L137.408 49.4968ZM135.69 44.4955V53.3336H138.648C139.457 53.3891 140.257 53.1336 140.886 52.6191C141.131 52.3924 141.326 52.1158 141.456 51.8078C141.586 51.4997 141.649 51.1674 141.641 50.8329C141.652 50.5285 141.601 50.2251 141.49 49.9413C141.38 49.6575 141.213 49.3993 141 49.1824C140.686 48.8802 140.284 48.6873 139.852 48.6323C140.163 48.4648 140.422 48.2135 140.598 47.9067C140.774 47.6 140.862 47.25 140.85 46.8961C140.857 46.5515 140.787 46.2096 140.646 45.8955C140.504 45.5815 140.294 45.3033 140.031 45.0814C139.395 44.6729 138.646 44.4801 137.893 44.5312L135.69 44.4955ZM137.408 45.9244H137.914C138.627 45.9244 139.232 46.2245 139.232 47.0319C139.232 47.1994 139.196 47.3649 139.126 47.5172C139.057 47.6695 138.955 47.8051 138.829 47.9148C138.703 48.0245 138.554 48.1058 138.394 48.1531C138.234 48.2005 138.065 48.2128 137.9 48.1893H137.408V45.9244Z" fill="#2D6ABA"/>
<path d="M148.169 44.3181C147.263 44.3378 146.383 44.6251 145.639 45.1441C144.895 45.6631 144.321 46.3906 143.988 47.2355C143.654 48.0805 143.577 49.0052 143.766 49.8938C143.955 50.7825 144.401 51.5955 145.049 52.231C145.696 52.8665 146.516 53.2963 147.407 53.4664C148.297 53.6366 149.217 53.5395 150.053 53.1874C150.888 52.8353 151.601 52.2439 152.103 51.4872C152.605 50.7305 152.872 49.8422 152.873 48.9336C152.892 48.3136 152.783 47.6963 152.552 47.1208C152.322 46.5452 151.974 46.024 151.532 45.5901C151.09 45.1562 150.563 44.8191 149.984 44.6001C149.405 44.3812 148.787 44.2851 148.169 44.3181ZM148.169 51.9773C147.562 52.003 146.961 51.8459 146.444 51.5264C145.927 51.2068 145.517 50.7394 145.267 50.1842C145.017 49.6291 144.939 49.0116 145.042 48.4114C145.145 47.8112 145.425 47.2556 145.846 46.8163C146.266 46.3769 146.809 46.0739 147.403 45.9462C147.997 45.8185 148.615 45.8719 149.179 46.0997C149.742 46.3274 150.225 46.7191 150.564 47.2241C150.904 47.7292 151.085 48.3246 151.084 48.9336C151.11 49.3316 151.053 49.7306 150.916 50.105C150.779 50.4795 150.565 50.821 150.288 51.1077C150.012 51.3944 149.678 51.6198 149.31 51.7696C148.941 51.9194 148.545 51.9901 148.148 51.9773" fill="#2D6ABA"/>
<path d="M157.818 41.6926C157.921 41.9228 158.088 42.1182 158.299 42.2554C158.51 42.3925 158.756 42.4655 159.008 42.4655C159.26 42.4655 159.506 42.3925 159.717 42.2554C159.928 42.1182 160.095 41.9228 160.198 41.6926L161.388 42.1713C161.168 42.6154 160.829 42.9891 160.408 43.2503C159.988 43.5115 159.503 43.6499 159.008 43.6499C158.513 43.6499 158.028 43.5115 157.608 43.2503C157.187 42.9891 156.848 42.6154 156.628 42.1713L157.818 41.6926ZM156.842 44.5148V50.4378L161.702 44.3148H162.899V53.3315H161.174V47.3799L156.314 53.5101H155.124V44.5148H156.842Z" fill="#2D6ABA"/>
<path d="M170.154 44.5168V48.3464C170.195 49.1315 170.086 49.9171 169.834 50.6614C169.749 50.9839 169.566 51.272 169.311 51.4858C169.055 51.6996 168.74 51.8285 168.408 51.8545V55.3269H169.99V53.3335H175.407V55.3269H176.996V51.8545H176.069V44.5168H170.154ZM171.815 45.9958H174.38V51.8545H170.817C171.133 51.5675 171.377 51.2102 171.53 50.8114C171.773 50.0138 171.875 49.1794 171.829 48.3464L171.815 45.9958Z" fill="#2D6ABA"/>
<path d="M183.104 44.3181C182.198 44.3378 181.317 44.6251 180.574 45.1441C179.83 45.6631 179.255 46.3906 178.922 47.2355C178.589 48.0805 178.512 49.0052 178.701 49.8938C178.889 50.7825 179.335 51.5955 179.983 52.231C180.631 52.8665 181.451 53.2963 182.341 53.4664C183.232 53.6366 184.152 53.5395 184.987 53.1874C185.823 52.8353 186.536 52.2439 187.038 51.4872C187.539 50.7305 187.807 49.8422 187.807 48.9336C187.827 48.3136 187.718 47.6963 187.487 47.1208C187.256 46.5452 186.909 46.024 186.467 45.5901C186.024 45.1562 185.497 44.8191 184.918 44.6001C184.339 44.3812 183.721 44.2851 183.104 44.3181ZM183.104 51.9773C182.497 51.9987 181.899 51.8379 181.384 51.5156C180.87 51.1933 180.463 50.7242 180.216 50.1685C179.97 49.6128 179.895 48.996 180 48.3971C180.106 47.7982 180.388 47.2446 180.809 46.8074C181.231 46.3703 181.773 46.0694 182.367 45.9436C182.96 45.8177 183.578 45.8726 184.14 46.1011C184.702 46.3296 185.184 46.7214 185.522 47.2261C185.86 47.7308 186.041 48.3254 186.04 48.9336C186.066 49.3316 186.009 49.7306 185.872 50.105C185.735 50.4795 185.521 50.821 185.244 51.1077C184.968 51.3944 184.634 51.6198 184.266 51.7696C183.897 51.9194 183.501 51.9901 183.104 51.9773Z" fill="#2D6ABA"/>
<path d="M189.609 53.3364L191.248 44.3555H192.439L194.826 50.1213L197.327 44.3555H198.518L200 53.3364H198.254L197.456 47.8993L195.04 53.4579H194.562L192.246 47.8993L191.355 53.3364H189.609Z" fill="#2D6ABA"/>
</svg>
