<svg width="20" height="18" viewBox="0 0 20 18" fill="none" xmlns="http://www.w3.org/2000/svg">
<path fill-rule="evenodd" clip-rule="evenodd" d="M7.00001 0C6.44773 0 6.00001 0.447715 6.00001 1V4H8.00001V2H18V16H8.00001V14H6.00001V17C6.00001 17.5523 6.44773 18 7.00001 18H19C19.5523 18 20 17.5523 20 17V1C20 0.447715 19.5523 0 19 0H7.00001ZM3.79289 4.79285L0.292893 8.29285C-0.0976311 8.68337 -0.0976311 9.31654 0.292893 9.70706L3.79289 13.2071L5.20711 11.7928L3.41426 10H13V8H3.41417L5.20711 6.20706L3.79289 4.79285Z" fill="#5C5C5C"/>
</svg>

